<svg width="768" height="212" xmlns="http://www.w3.org/2000/svg" xmlns:xlink="http://www.w3.org/1999/xlink" overflow="hidden"><defs><clipPath id="clip0"><rect x="269" y="254" width="768" height="212"/></clipPath><clipPath id="clip1"><rect x="270" y="256" width="526" height="168"/></clipPath><clipPath id="clip2"><rect x="270" y="256" width="526" height="168"/></clipPath><clipPath id="clip3"><rect x="142" y="256" width="995" height="212"/></clipPath><clipPath id="clip4"><rect x="796" y="254" width="240" height="212"/></clipPath><clipPath id="clip5"><rect x="796" y="254" width="240" height="212"/></clipPath></defs><g clip-path="url(#clip0)" transform="translate(-269 -254)"><g clip-path="url(#clip1)"><g clip-path="url(#clip2)"><g clip-path="url(#clip3)"><path d="M13.1415 1144.02 1.77588 1144.02C-3.90694 1144.02-7.81388 1140.12-7.81388 1134.43-7.81388 1129.11-3.90694 1125.2 1.77588 1125.2L12.4312 1125.2 12.4312 1129.11 1.77588 1129.11C-1.06553 1129.11-3.19659 1131.24-3.19659 1134.79-3.19659 1137.99-1.06553 1140.47 1.77588 1140.47L8.52423 1140.47 8.52423 1134.43 13.1415 1134.43C13.1415 1134.43 13.1415 1144.02 13.1415 1144.02Z" fill="#2C0B07" transform="matrix(1 0 -0 1.00278 406.233 -698.158)"/><path d="M34.8073 1138.7 40.1349 1144.02 34.4521 1144.02 29.4796 1139.05 22.3761 1139.05 22.3761 1144.02 17.7588 1144.02 17.7588 1125.2 30.5452 1125.2C35.8728 1125.2 39.4246 1127.69 39.4246 1131.95 39.4246 1135.14 37.6487 1137.63 34.8073 1138.7M30.5452 1135.5C33.3866 1135.5 34.8073 1134.43 34.8073 1132.3 34.8073 1130.17 33.3866 1129.11 30.5452 1129.11L22.3761 1129.11 22.3761 1135.5 30.5452 1135.5Z" fill="#2C0B07" transform="matrix(1 0 -0 1.00278 406.233 -698.158)"/><path d="M58.6041 1139.76 47.9488 1139.76 45.4626 1144.02 40.4901 1144.02 51.1454 1126.26C51.5006 1125.55 52.5661 1124.84 53.2765 1124.84 53.9868 1124.84 55.0523 1125.2 55.4075 1126.26L66.0628 1144.02 60.7352 1144.02 58.6041 1139.76ZM56.473 1136.21 53.2765 1130.53 50.0799 1136.21 56.473 1136.21Z" fill="#2C0B07" transform="matrix(1 0 -0 1.00278 406.233 -698.158)"/><path d="M85.2423 1125.2 89.8596 1125.2 89.8596 1141.89C89.8596 1143.31 88.7941 1144.38 87.3734 1144.38 86.663 1144.38 85.9527 1144.02 85.5975 1143.67L73.1663 1131.59 73.1663 1144.02 68.549 1144.02 68.549 1127.33C68.549 1125.91 69.6146 1124.84 71.0353 1124.84 71.7456 1124.84 72.456 1125.2 72.8112 1125.55L85.2423 1137.63 85.2423 1125.2Z" fill="#2C0B07" transform="matrix(1 0 -0 1.00278 406.233 -698.158)"/><path d="M116.498 1134.79C116.498 1140.12 112.591 1144.02 106.908 1144.02L94.8321 1144.02 94.8321 1125.2 106.908 1125.2C112.236 1125.2 116.498 1129.11 116.498 1134.79M111.525 1134.79C111.525 1131.59 109.394 1129.11 106.553 1129.11L99.0942 1129.11 99.0942 1140.47 106.553 1140.47C109.394 1140.12 111.525 1137.99 111.525 1134.79" fill="#2C0B07" transform="matrix(1 0 -0 1.00278 406.233 -698.158)"/><path d="M120.05 1125.2 124.667 1125.2 124.667 1144.02 120.05 1144.02Z" fill="#2C0B07" transform="matrix(1 0 -0 1.00278 406.233 -698.158)"/><path d="M146.688 1138.7 152.016 1144.02 145.978 1144.02 141.36 1139.05 134.257 1139.05 134.257 1144.02 129.639 1144.02 129.639 1125.2 142.426 1125.2C147.753 1125.2 151.305 1127.69 151.305 1131.95 150.95 1135.14 149.529 1137.63 146.688 1138.7M142.071 1135.5C144.912 1135.5 146.333 1134.43 146.333 1132.3 146.333 1130.17 144.912 1129.11 142.071 1129.11L134.257 1129.11 134.257 1135.5 142.071 1135.5Z" fill="#2C0B07" transform="matrix(1 0 -0 1.00278 406.233 -698.158)"/><path d="M154.502 1141.89C154.502 1140.47 155.567 1139.76 156.988 1139.76L158.054 1139.76C159.474 1139.76 160.54 1140.47 160.54 1141.89 160.54 1143.31 159.474 1144.02 158.054 1144.02L156.988 1144.02C155.567 1144.02 154.502 1142.96 154.502 1141.89" fill="#2C0B07" transform="matrix(1 0 -0 1.00278 406.233 -698.158)"/><path d="M177.233 1132.66 190.019 1132.66 190.019 1136.21 177.233 1136.21 177.233 1140.12 191.795 1140.12 191.795 1144.02 172.616 1144.02 172.616 1125.2 191.795 1125.2 191.795 1129.11 177.233 1129.11Z" fill="#2C0B07" transform="matrix(1 0 -0 1.00278 406.233 -698.158)"/><path d="M212.04 1125.2 216.658 1125.2 216.658 1141.89C216.658 1143.31 215.592 1144.38 214.171 1144.38 213.461 1144.38 212.751 1144.02 212.395 1143.67L199.964 1131.59 199.964 1144.02 195.347 1144.02 195.347 1127.33C195.347 1125.91 196.413 1124.84 197.833 1124.84 198.544 1124.84 199.254 1125.2 199.609 1125.55L212.04 1137.63 212.04 1125.2Z" fill="#2C0B07" transform="matrix(1 0 -0 1.00278 406.233 -698.158)"/><path d="M233.706 1140.12C235.837 1140.12 236.903 1139.41 236.903 1138.34 236.903 1136.92 235.837 1136.56 233.706 1136.56L228.023 1136.56C223.051 1136.56 220.565 1134.43 220.565 1131.24 220.565 1127.69 223.406 1125.55 228.378 1125.55L240.454 1125.55 240.454 1129.46 228.378 1129.46C226.247 1129.46 225.182 1130.17 225.182 1131.24 225.182 1132.3 226.247 1133.01 228.378 1133.01L234.061 1133.01C239.034 1133.01 241.52 1134.79 241.52 1138.7 241.52 1142.6 238.679 1144.73 233.351 1144.73L220.565 1144.73 220.565 1140.83 233.706 1140.83 233.706 1140.12Z" fill="#2C0B07" transform="matrix(1 0 -0 1.00278 406.233 -698.158)"/><path d="M250.044 1132.66 262.831 1132.66 262.831 1136.21 250.044 1136.21 250.044 1140.12 264.251 1140.12 264.251 1144.02 245.072 1144.02 245.072 1125.2 264.251 1125.2 264.251 1129.11 250.044 1129.11Z" fill="#2C0B07" transform="matrix(1 0 -0 1.00278 406.233 -698.158)"/><path d="M268.158 1126.97C268.158 1125.55 269.224 1124.84 270.644 1124.84 271.71 1124.84 272.42 1125.2 272.776 1125.91L281.3 1137.27 289.824 1125.91C290.534 1125.2 291.245 1124.84 291.955 1124.84 293.376 1124.84 294.086 1125.91 294.086 1126.97L294.086 1144.02 289.469 1144.02 289.469 1132.66 283.076 1141.18C282.72 1141.89 282.01 1142.25 281.3 1142.25 280.589 1142.25 279.879 1141.89 279.524 1141.18L273.131 1132.66 273.131 1144.02 268.513 1144.02 268.158 1126.97 268.158 1126.97Z" fill="#2C0B07" transform="matrix(1 0 -0 1.00278 406.233 -698.158)"/><path d="M320.369 1138.7C320.369 1141.89 317.528 1144.38 313.266 1144.38L299.059 1144.38 299.059 1125.55 312.91 1125.55C317.173 1125.55 319.659 1127.69 319.659 1130.88 319.659 1132.66 318.948 1133.72 317.528 1134.79 319.304 1135.14 320.369 1136.56 320.369 1138.7M303.676 1132.66 312.555 1132.66C314.331 1132.66 315.041 1131.95 315.041 1130.88 315.041 1129.46 314.331 1129.11 312.555 1129.11L303.676 1129.11 303.676 1132.66ZM315.752 1138.34C315.752 1136.92 315.041 1136.21 312.91 1136.21L303.676 1136.21 303.676 1140.47 312.91 1140.47C314.686 1140.12 315.752 1139.76 315.752 1138.34" fill="#2C0B07" transform="matrix(1 0 -0 1.00278 406.233 -698.158)"/><path d="M342.39 1140.12 342.39 1144.02 323.921 1144.02 323.921 1125.2 328.538 1125.2 328.538 1140.12Z" fill="#2C0B07" transform="matrix(1 0 -0 1.00278 406.233 -698.158)"/><path d="M350.914 1132.66 363.701 1132.66 363.701 1136.21 350.914 1136.21 350.914 1140.12 365.477 1140.12 365.477 1144.02 346.297 1144.02 346.297 1125.2 365.477 1125.2 365.477 1129.11 350.914 1129.11Z" fill="#2C0B07" transform="matrix(1 0 -0 1.00278 406.233 -698.158)"/><path d="M369.383 1141.89C369.383 1140.47 370.449 1139.76 371.87 1139.76L372.935 1139.76C374.356 1139.76 375.421 1140.47 375.421 1141.89 375.421 1143.31 374.356 1144.02 372.935 1144.02L371.87 1144.02C370.449 1144.02 369.383 1142.96 369.383 1141.89" fill="#2C0B07" transform="matrix(1 0 -0 1.00278 406.233 -698.158)"/><path d="M60.0248 1033.92C60.0248 1042.09 53.2765 1047.77 41.9108 1047.77L6.39318 1047.77 6.39318 1001.24 40.8453 1001.24C51.5006 1001.24 57.8938 1006.21 57.8938 1014.03 57.8938 1018.29 56.1179 1021.49 52.9213 1023.62 57.8938 1025.39 60.0248 1028.95 60.0248 1033.92M18.4692 1019 40.4901 1019C44.7522 1019 46.5281 1017.58 46.5281 1014.38 46.5281 1011.19 44.7522 1010.12 40.4901 1010.12L18.4692 1010.12 18.4692 1019ZM48.304 1032.85C48.304 1029.3 46.1729 1027.88 41.5556 1027.88L18.4692 1027.88 18.4692 1038.18 41.5556 1038.18C46.1729 1038.18 48.304 1036.4 48.304 1032.85" fill="#EF6110" transform="matrix(1 0 -0 1.00278 406.233 -698.158)"/><path d="M106.198 1037.12 80.2699 1037.12 74.5871 1047.42 61.4455 1047.42 87.7286 1003.02C88.7941 1001.24 90.9252 999.822 93.0562 999.822 95.1873 999.822 97.3183 1001.24 98.3839 1003.02L124.667 1047.42 111.881 1047.42 106.198 1037.12ZM100.87 1027.88 93.0562 1014.03 85.2423 1027.88 100.87 1027.88Z" fill="#EF6110" transform="matrix(1 0 -0 1.00278 406.233 -698.158)"/><path d="M172.261 1000.89 183.626 1000.89 183.626 1042.44C183.626 1045.99 181.14 1048.13 177.588 1048.13 175.812 1048.13 174.036 1047.42 172.971 1046.35L142.426 1016.51 142.426 1047.42 131.06 1047.42 131.06 1005.86C131.06 1002.31 133.546 999.822 137.098 999.822 138.874 999.822 140.65 1000.53 141.715 1001.6L172.261 1031.08C172.261 1031.08 172.261 1000.89 172.261 1000.89Z" fill="#EF6110" transform="matrix(1 0 -0 1.00278 406.233 -698.158)"/><path d="M242.586 1047.42 239.744 1045.28C236.548 1046.7 232.996 1047.42 229.089 1047.42L216.658 1047.42C202.806 1047.42 192.506 1037.47 192.506 1023.62 192.506 1010.12 202.095 1000.53 216.658 1000.53L229.089 1000.53C243.296 1000.53 252.886 1010.12 252.886 1023.62 252.886 1030.01 250.755 1035.69 246.848 1039.96L255.727 1047.42 242.586 1047.42ZM230.865 1038.18 221.63 1030.72 235.482 1030.72 238.679 1033.56C240.454 1031.08 241.52 1027.88 241.52 1024.33 241.52 1016.16 236.548 1010.48 229.444 1010.48L217.013 1010.48C209.909 1010.48 204.937 1015.8 204.937 1024.33 204.937 1032.5 209.909 1038.54 217.013 1038.54L229.444 1038.54C229.799 1038.18 230.51 1038.18 230.865 1038.18" fill="#EF6110" transform="matrix(1 0 -0 1.00278 406.233 -698.158)"/><path d="M316.462 1000.89 316.462 1027.17C316.462 1041.02 306.872 1048.13 289.114 1048.13 271.355 1048.13 261.765 1040.67 261.765 1027.17L261.765 1000.89 273.131 1000.89 273.131 1026.1C273.131 1034.98 277.748 1038.54 289.114 1038.54 300.479 1038.54 305.097 1034.98 305.097 1026.1L305.097 1000.89 316.462 1000.89Z" fill="#EF6110" transform="matrix(1 0 -0 1.00278 406.233 -698.158)"/><path d="M339.193 1019 370.804 1019 370.804 1028.24 339.193 1028.24 339.193 1038.18 375.066 1038.18 375.066 1047.42 327.473 1047.42 327.473 1000.89 375.066 1000.89 375.066 1010.12 339.193 1010.12Z" fill="#EF6110" transform="matrix(1 0 -0 1.00278 406.233 -698.158)"/><path d="M-80.9802 1076.9C-80.9802 1087.55-89.1493 1093.59-103.001 1093.59L-122.181 1093.59-122.181 1106.73-133.902 1106.73-133.902 1060.2-103.001 1060.2C-88.7941 1060.2-80.9802 1066.24-80.9802 1076.9M-92.701 1076.9C-92.701 1071.92-95.8976 1069.44-103.001 1069.44L-121.826 1069.44-121.826 1084.35-103.001 1084.35C-96.2528 1084.35-92.701 1081.87-92.701 1076.9" fill="#EF6110" transform="matrix(1 0 -0 1.00278 406.233 -698.158)"/><path d="M-13.8519 1082.93C-13.8519 1096.78-23.7968 1106.73-37.6487 1106.73L-50.0799 1106.73C-63.9318 1106.73-74.2319 1096.78-74.2319 1082.93-74.2319 1069.44-64.6421 1059.85-50.0799 1059.85L-37.6487 1059.85C-23.4416 1060.2-13.8519 1069.44-13.8519 1082.93M-25.5727 1082.93C-25.5727 1074.76-30.5452 1069.08-37.6487 1069.08L-50.0799 1069.08C-57.1834 1069.08-62.1559 1074.41-62.1559 1082.93-62.1559 1091.1-57.1834 1097.14-50.0799 1097.14L-37.6487 1097.14C-30.5452 1097.5-25.5727 1091.1-25.5727 1082.93" fill="#EF6110" transform="matrix(1 0 -0 1.00278 406.233 -698.158)"/><path d="M48.304 1076.9C48.304 1087.55 40.1349 1093.59 26.2831 1093.59L7.10353 1093.59 7.10353 1106.73-4.61729 1106.73-4.61729 1060.2 26.2831 1060.2C40.1349 1060.2 48.304 1066.24 48.304 1076.9M36.228 1076.9C36.228 1071.92 33.0314 1069.44 25.9279 1069.44L7.10353 1069.44 7.10353 1084.35 25.9279 1084.35C33.0314 1084.35 36.228 1081.87 36.228 1076.9" fill="#EF6110" transform="matrix(1 0 -0 1.00278 406.233 -698.158)"/><path d="M111.525 1059.85 111.525 1086.13C111.525 1099.98 101.936 1107.08 84.1768 1107.08 66.418 1107.08 56.8282 1099.63 56.8282 1086.13L56.8282 1059.85 68.1939 1059.85 68.1939 1085.06C68.1939 1093.94 72.8112 1097.5 84.1768 1097.5 95.5425 1097.5 100.16 1093.94 100.16 1085.06L100.16 1059.85 111.525 1059.85Z" fill="#EF6110" transform="matrix(1 0 -0 1.00278 406.233 -698.158)"/><path d="M168.354 1097.5 168.354 1106.73 122.536 1106.73 122.536 1060.2 134.257 1060.2 134.257 1097.5Z" fill="#EF6110" transform="matrix(1 0 -0 1.00278 406.233 -698.158)"/><path d="M217.368 1096.43 191.44 1096.43 185.757 1106.73 172.971 1106.73 199.254 1062.33C200.32 1060.56 202.451 1059.14 204.582 1059.14 206.713 1059.14 208.844 1060.56 209.909 1062.33L236.192 1106.73 223.406 1106.73 217.368 1096.43ZM212.04 1087.2 204.226 1073.34 196.413 1087.2 212.04 1087.2Z" fill="#EF6110" transform="matrix(1 0 -0 1.00278 406.233 -698.158)"/><path d="M241.875 1060.2 253.596 1060.2 253.596 1106.73 241.875 1106.73Z" fill="#EF6110" transform="matrix(1 0 -0 1.00278 406.233 -698.158)"/><path d="M307.583 1093.23 321.079 1106.73 306.162 1106.73 294.441 1094.65 276.682 1094.65 276.682 1106.73 264.962 1106.73 264.962 1060.2 296.927 1060.2C310.424 1060.2 318.593 1066.59 318.593 1077.25 318.593 1084.71 314.686 1090.75 307.583 1093.23M296.572 1085.42C303.676 1085.42 306.872 1082.93 306.872 1077.25 306.872 1071.92 303.676 1069.08 296.572 1069.08L277.038 1069.08 277.038 1085.42 296.572 1085.42 296.572 1085.42Z" fill="#EF6110" transform="matrix(1 0 -0 1.00278 406.233 -698.158)"/><path d="M339.193 1078.32 370.804 1078.32 370.804 1087.55 339.193 1087.55 339.193 1097.5 375.066 1097.5 375.066 1106.73 327.473 1106.73 327.473 1060.2 375.066 1060.2 375.066 1069.44 339.193 1069.44Z" fill="#EF6110" transform="matrix(1 0 -0 1.00278 406.233 -698.158)"/><path d="M522.109 1158.23C465.281 1158.23 418.753 1112.06 418.753 1054.87 418.753 998.046 464.926 951.518 522.109 951.518 578.938 951.518 625.466 997.691 625.466 1054.87 625.466 1112.06 579.293 1158.23 522.109 1158.23M522.109 958.976C469.188 958.976 426.212 1001.95 426.212 1054.87 426.212 1107.8 469.188 1150.77 522.109 1150.77 575.031 1150.77 618.007 1107.8 618.007 1054.87 618.007 1001.95 575.031 958.976 522.109 958.976" fill="#EF6110" transform="matrix(1 0 -0 1.00278 406.233 -698.158)"/><path d="M517.492 1103.18C517.137 1102.82 516.071 1102.11 515.716 1100.69 515.361 1099.98 515.361 1098.21 514.651 1097.5 511.454 1095.01 508.257 1092.88 503.995 1090.39 502.575 1091.1 500.799 1092.17 499.378 1092.88 501.864 1094.3 504.706 1096.43 507.547 1099.27 507.902 1099.63 508.257 1099.63 508.968 1099.63 509.678 1099.27 510.744 1099.27 511.454 1099.63 512.52 1100.34 512.52 1101.76 511.454 1102.82L511.454 1103.18C511.454 1104.24 511.809 1104.95 511.809 1105.66 511.809 1105.66 511.809 1106.02 512.164 1106.02L518.202 1109.22C518.558 1109.22 518.913 1109.22 518.558 1108.86 518.202 1104.95 517.847 1103.89 517.492 1103.18 517.847 1103.18 517.847 1103.18 517.492 1103.18M549.103 1076.54C548.392 1076.9 547.327 1077.25 546.972 1078.32 545.906 1080.8 545.196 1082.93 544.485 1085.42 543.065 1087.2 542.71 1088.62 542.71 1091.1 542.71 1092.88 540.578 1096.43 535.961 1108.86 535.961 1109.22 535.606 1109.57 535.961 1109.93 535.961 1110.28 536.316 1110.99 536.672 1111.7L537.027 1112.06C537.382 1112.06 538.092 1112.06 538.092 1112.41 538.803 1112.41 540.578 1113.12 540.934 1114.9 540.934 1115.25 540.934 1115.96 540.934 1115.96L540.934 1115.96C540.934 1116.32 541.289 1117.39 541.644 1118.45L541.999 1118.81 548.392 1118.81C548.748 1118.81 549.103 1118.45 548.748 1118.1 547.327 1115.96 546.972 1115.61 546.261 1114.19L546.261 1114.19C543.775 1113.12 543.065 1112.06 542.354 1111.35 541.644 1110.28 541.644 1109.22 541.644 1108.51 541.999 1104.95 547.327 1095.36 548.392 1094.3 550.168 1092.88 550.523 1091.81 550.879 1090.75 551.234 1089.68 551.234 1088.97 551.234 1088.62 551.589 1087.2 555.141 1082.58 556.917 1080.09 553.72 1077.61 551.589 1077.61 549.103 1076.54M578.938 1009.41C578.938 1009.41 578.582 1009.41 578.938 1009.41 578.227 1008.7 578.227 1008.7 578.227 1008.35 577.872 1007.28 577.872 1006.93 577.517 1006.93 577.162 1006.93 576.807 1006.57 576.451 1006.57 575.386 1006.57 574.32 1006.57 573.255 1006.21 567.927 1004.08 565.441 1001.95 565.441 1001.95 566.151 1001.24 567.572 999.466 566.151 996.98 566.151 997.691 565.796 998.046 565.441 998.046 565.796 995.915 564.375 994.494 562.955 994.139 564.02 994.849 563.665 996.27 563.665 996.625 563.31 995.915 562.599 994.849 561.534 994.849 562.244 996.625 561.179 998.401 559.048 998.046 559.758 995.915 559.403 993.429 558.693 990.942L558.693 990.942C557.627 993.429 556.206 994.139 554.786 998.046 553.72 997.335 549.813 995.204 546.617 996.625 547.682 996.98 549.813 997.691 550.168 998.756 546.972 998.046 543.065 998.401 540.578 1000.53 542.354 1000.18 544.841 1000.89 545.551 1001.6 544.13 1002.66 541.289 1003.02 538.092 1003.02 538.803 1003.73 541.644 1005.15 543.42 1005.5 538.803 1005.5 537.737 1007.64 534.896 1009.06 538.092 1008.7 539.158 1010.12 541.289 1010.12 537.737 1010.83 536.316 1012.25 532.409 1011.9 533.12 1013.32 536.316 1015.09 537.737 1015.45 535.606 1015.8 532.765 1017.58 530.278 1016.87 531.344 1019 535.251 1020.07 537.382 1020.07 537.027 1020.78 533.12 1021.49 531.344 1021.49 532.054 1022.55 535.606 1022.55 536.316 1022.91 535.606 1023.62 530.989 1024.33 529.568 1024.33 530.634 1026.46 535.251 1027.53 537.382 1027.17 536.672 1029.3 530.989 1028.95 528.503 1027.88 529.568 1030.37 533.83 1033.21 537.737 1032.85 535.961 1033.92 531.344 1034.27 529.213 1033.92 529.923 1035.34 533.12 1037.47 535.606 1038.18 537.737 1038.89 537.027 1040.31 534.896 1041.02 527.437 1043.15 516.071 1043.15 507.192 1041.38 504.706 1041.02 501.154 1041.02 498.668 1041.38 496.892 1041.73 495.471 1042.09 494.05 1042.8L494.05 1042.8C493.34 1043.15 493.34 1042.8 493.34 1041.73L493.34 1041.73C493.695 1039.96 493.695 1038.18 493.34 1036.4 492.63 1032.5 489.078 1030.01 485.526 1028.24 482.33 1026.82 478.423 1026.1 474.871 1026.46 473.45 1026.46 472.029 1026.82 470.609 1026.82 469.898 1026.82 467.412 1027.53 466.347 1027.88 467.057 1028.24 467.412 1028.59 469.188 1028.95 464.216 1029.3 459.243 1031.08 454.626 1028.24 455.336 1031.08 458.533 1031.79 460.664 1031.79 448.233 1033.92 442.195 1026.82 441.484 1025.39 443.26 1032.85 450.009 1035.34 452.14 1035.69 450.719 1035.69 446.812 1036.05 441.484 1033.21 444.326 1039.96 457.112 1038.89 457.822 1038.89 457.112 1039.25 453.915 1040.31 448.943 1039.96 454.981 1044.57 464.571 1038.89 477.002 1038.54 474.516 1038.89 470.609 1040.31 468.123 1043.15 476.292 1039.6 483.395 1040.31 484.105 1040.31 490.854 1040.67 490.499 1043.51 487.657 1047.77 486.592 1049.55 485.881 1051.68 485.526 1053.81 484.816 1059.14 486.947 1064.46 490.143 1068.37 491.209 1069.79 492.63 1071.21 494.05 1072.63 496.181 1074.41 497.602 1075.83 498.668 1076.54 501.154 1078.67 501.509 1079.38 501.154 1080.09 500.088 1081.87 498.313 1083.29 496.537 1084.71L495.826 1084.35C495.116 1084 495.116 1083.64 495.116 1083.64 496.181 1083.29 497.957 1082.93 499.378 1080.8 499.733 1080.45 499.733 1080.09 499.733 1079.38 499.733 1079.03 499.023 1078.32 498.313 1077.61L498.313 1077.61 498.313 1077.61C498.313 1077.61 498.313 1077.61 497.957 1077.25 497.602 1076.9 497.247 1076.54 496.892 1076.18 495.826 1075.47 494.05 1074.41 492.63 1072.99 490.499 1080.09 486.947 1083.29 485.881 1083.64 485.881 1083.64 485.526 1084 485.881 1084 485.881 1084.35 486.237 1085.42 486.237 1086.48 486.237 1086.84 486.592 1087.2 486.947 1087.2 488.012 1087.2 488.723 1087.55 490.143 1087.55 490.499 1087.55 490.499 1087.55 490.854 1087.55L490.854 1087.55 490.854 1087.55C490.499 1088.26 490.499 1088.97 490.499 1090.04 490.499 1090.39 490.499 1090.39 490.854 1090.39 491.919 1091.46 494.05 1093.23 495.116 1094.3 497.602 1097.14 499.378 1098.56 502.93 1108.86 502.93 1109.22 503.64 1109.22 503.995 1109.57 507.547 1110.28 507.547 1113.12 507.192 1113.83 507.192 1113.83 507.192 1113.83 507.192 1114.19 507.192 1115.25 507.547 1115.96 507.547 1116.32 507.547 1116.32 507.547 1116.67 507.902 1116.67L515.006 1116.67C515.361 1116.67 515.361 1116.32 515.361 1116.32 513.94 1113.83 513.23 1112.77 512.52 1112.06L512.52 1112.06C511.809 1111.7 509.678 1111.35 508.968 1109.57 508.613 1108.86 508.613 1108.51 508.968 1107.8 508.968 1107.44 508.613 1106.37 508.613 1106.02 503.995 1100.69 500.799 1093.23 500.088 1091.46 500.088 1091.1 500.088 1091.1 500.088 1091.1 500.088 1091.1 500.088 1091.1 500.444 1091.1L500.444 1091.1 500.444 1091.1C501.864 1090.39 502.93 1089.68 504.706 1088.26 505.416 1087.91 505.771 1087.55 506.126 1087.2 511.099 1083.64 513.585 1080.45 515.361 1076.9 516.427 1074.76 517.137 1070.86 516.782 1068.73 516.427 1066.59 515.361 1064.82 514.651 1063.75 514.651 1063.75 514.651 1063.4 515.006 1063.75 516.782 1064.82 518.202 1069.44 518.558 1070.15 518.558 1070.15 524.24 1074.41 546.261 1074.41 546.972 1074.41 547.682 1074.41 548.392 1074.41 548.748 1074.41 549.458 1074.41 549.813 1074.05 549.458 1073.7 548.748 1073.34 548.392 1072.99 546.972 1071.57 545.906 1069.79 545.196 1067.66 544.841 1066.59 544.485 1064.46 544.485 1063.4 544.485 1062.69 544.841 1062.69 544.841 1063.4 545.196 1064.46 545.196 1065.88 545.906 1066.95 546.617 1068.73 547.327 1070.15 548.748 1071.21 549.813 1072.28 551.234 1073.7 553.01 1074.41 553.365 1074.76 553.72 1074.76 554.43 1075.12 561.534 1078.32 566.506 1080.09 571.479 1082.22 571.479 1082.22 571.834 1082.58 571.834 1082.93 571.834 1082.93 571.834 1083.64 571.834 1084.71 571.834 1085.06 571.479 1085.42 571.479 1085.42 567.572 1090.04 565.441 1092.17 561.179 1095.72 560.824 1096.07 560.468 1096.43 560.468 1097.14 560.468 1098.21 560.824 1098.56 560.824 1099.27 560.824 1099.98 560.468 1099.98 560.113 1099.98 559.403 1099.63 558.337 1099.27 557.272 1098.92 556.917 1098.92 556.917 1098.92 556.561 1099.27L553.365 1105.31C553.365 1105.66 553.365 1106.02 553.72 1106.02 555.141 1105.66 556.917 1105.66 557.982 1105.31 559.758 1104.95 559.758 1103.18 562.955 1102.47 563.31 1102.47 564.02 1102.47 564.731 1101.76 565.086 1101.05 566.151 1099.27 566.862 1097.85 567.927 1096.43 568.282 1095.36 568.637 1095.01 570.768 1092.17 571.124 1091.81 576.807 1085.77L577.162 1085.06C577.162 1084 577.517 1082.58 577.517 1081.16 577.517 1080.45 577.162 1080.09 577.162 1079.74 577.162 1079.74 576.096 1078.67 576.096 1078.32 571.834 1075.47 567.927 1070.5 566.506 1069.08L566.862 1068.73 566.862 1068.73C566.862 1068.73 566.862 1068.73 567.217 1068.37 568.282 1067.31 569.348 1065.88 570.058 1064.46 574.32 1056.29 571.834 1047.06 568.282 1039.25 559.758 1021.84 560.824 1014.74 560.824 1014.74 563.665 1015.45 565.796 1013.67 567.927 1013.32L573.255 1013.32C573.61 1013.67 574.32 1014.38 574.675 1014.74 575.031 1014.74 575.386 1014.74 575.741 1014.74 576.096 1014.74 576.807 1014.38 577.517 1014.03L578.582 1013.67C578.582 1013.67 578.938 1013.67 578.938 1013.32 579.293 1012.96 579.648 1012.25 579.648 1011.9L579.648 1011.54C578.938 1011.54 577.517 1011.19 577.162 1011.19 576.807 1011.19 576.807 1010.12 577.162 1010.12 577.872 1010.12 579.648 1010.48 580.003 1010.48L580.358 1010.48C580.358 1010.12 580.713 1009.41 581.069 1009.06 579.293 1010.12 579.293 1009.77 578.938 1009.41M562.599 1004.08C561.534 1004.08 561.534 1004.44 561.534 1004.44 561.534 1004.79 561.889 1005.15 562.599 1005.5 561.534 1005.5 561.179 1005.15 560.113 1004.08 560.824 1003.37 561.534 1003.02 562.599 1003.02 564.02 1003.02 564.375 1004.79 564.375 1004.79 564.375 1004.79 562.955 1004.44 562.599 1004.08" fill="#2C0B07" transform="matrix(1 0 -0 1.00278 406.233 -698.158)"/></g></g></g><g clip-path="url(#clip4)"><g clip-path="url(#clip5)"><path d="M13.1567 1145.34 1.77793 1145.34C-3.91145 1145.34-7.82289 1141.43-7.82289 1135.74-7.82289 1130.41-3.91145 1126.5 1.77793 1126.5L12.4455 1126.5 12.4455 1130.41 1.77793 1130.41C-1.06676 1130.41-3.20027 1132.54-3.20027 1136.1-3.20027 1139.3-1.06676 1141.79 1.77793 1141.79L8.53407 1141.79 8.53407 1135.74 13.1567 1135.74C13.1567 1135.74 13.1567 1145.34 13.1567 1145.34Z" fill="#2C0B07" transform="matrix(1 0 -0 1.0037 405.783 -702.141)"/><path d="M34.8474 1140.01 40.1812 1145.34 34.4918 1145.34 29.5136 1140.36 22.4019 1140.36 22.4019 1145.34 17.7793 1145.34 17.7793 1126.5 30.5804 1126.5C35.9142 1126.5 39.4701 1128.99 39.4701 1133.25 39.4701 1136.45 37.6921 1138.94 34.8474 1140.01M30.5804 1136.81C33.4251 1136.81 34.8474 1135.74 34.8474 1133.61 34.8474 1131.47 33.4251 1130.41 30.5804 1130.41L22.4019 1130.41 22.4019 1136.81 30.5804 1136.81Z" fill="#2C0B07" transform="matrix(1 0 -0 1.0037 405.783 -702.141)"/><path d="M58.6717 1141.08 48.0041 1141.08 45.515 1145.34 40.5368 1145.34 51.2044 1127.56C51.56 1126.85 52.6267 1126.14 53.3379 1126.14 54.0491 1126.14 55.1158 1126.5 55.4714 1127.56L66.139 1145.34 60.8052 1145.34 58.6717 1141.08ZM56.5382 1137.52 53.3379 1131.83 50.1376 1137.52 56.5382 1137.52Z" fill="#2C0B07" transform="matrix(1 0 -0 1.0037 405.783 -702.141)"/><path d="M85.3407 1126.5 89.9633 1126.5 89.9633 1143.21C89.9633 1144.63 88.8965 1145.7 87.4742 1145.7 86.763 1145.7 86.0518 1145.34 85.6962 1144.99L73.2507 1132.9 73.2507 1145.34 68.6281 1145.34 68.6281 1128.63C68.6281 1127.21 69.6949 1126.14 71.1172 1126.14 71.8284 1126.14 72.5396 1126.5 72.8951 1126.85L85.3407 1138.94 85.3407 1126.5Z" fill="#2C0B07" transform="matrix(1 0 -0 1.0037 405.783 -702.141)"/><path d="M116.632 1136.1C116.632 1141.43 112.721 1145.34 107.031 1145.34L94.9415 1145.34 94.9415 1126.5 107.031 1126.5C112.365 1126.5 116.632 1130.41 116.632 1136.1M111.654 1136.1C111.654 1132.9 109.521 1130.41 106.676 1130.41L99.2085 1130.41 99.2085 1141.79 106.676 1141.79C109.521 1141.43 111.654 1139.3 111.654 1136.1" fill="#2C0B07" transform="matrix(1 0 -0 1.0037 405.783 -702.141)"/><path d="M120.188 1126.5 124.811 1126.5 124.811 1145.34 120.188 1145.34Z" fill="#2C0B07" transform="matrix(1 0 -0 1.0037 405.783 -702.141)"/><path d="M146.857 1140.01 152.191 1145.34 146.146 1145.34 141.523 1140.36 134.412 1140.36 134.412 1145.34 129.789 1145.34 129.789 1126.5 142.59 1126.5C147.924 1126.5 151.48 1128.99 151.48 1133.25 151.124 1136.45 149.702 1138.94 146.857 1140.01M142.234 1136.81C145.079 1136.81 146.501 1135.74 146.501 1133.61 146.501 1131.47 145.079 1130.41 142.234 1130.41L134.412 1130.41 134.412 1136.81 142.234 1136.81Z" fill="#2C0B07" transform="matrix(1 0 -0 1.0037 405.783 -702.141)"/><path d="M154.68 1143.21C154.68 1141.79 155.747 1141.08 157.169 1141.08L158.236 1141.08C159.658 1141.08 160.725 1141.79 160.725 1143.21 160.725 1144.63 159.658 1145.34 158.236 1145.34L157.169 1145.34C155.747 1145.34 154.68 1144.28 154.68 1143.21" fill="#2C0B07" transform="matrix(1 0 -0 1.0037 405.783 -702.141)"/><path d="M177.437 1133.96 190.239 1133.96 190.239 1137.52 177.437 1137.52 177.437 1141.43 192.016 1141.43 192.016 1145.34 172.815 1145.34 172.815 1126.5 192.016 1126.5 192.016 1130.41 177.437 1130.41Z" fill="#2C0B07" transform="matrix(1 0 -0 1.0037 405.783 -702.141)"/><path d="M212.285 1126.5 216.908 1126.5 216.908 1143.21C216.908 1144.63 215.841 1145.7 214.418 1145.7 213.707 1145.7 212.996 1145.34 212.64 1144.99L200.195 1132.9 200.195 1145.34 195.572 1145.34 195.572 1128.63C195.572 1127.21 196.639 1126.14 198.061 1126.14 198.773 1126.14 199.484 1126.5 199.839 1126.85L212.285 1138.94 212.285 1126.5Z" fill="#2C0B07" transform="matrix(1 0 -0 1.0037 405.783 -702.141)"/><path d="M233.976 1141.43C236.109 1141.43 237.176 1140.72 237.176 1139.65 237.176 1138.23 236.109 1137.88 233.976 1137.88L228.286 1137.88C223.308 1137.88 220.819 1135.74 220.819 1132.54 220.819 1128.99 223.664 1126.85 228.642 1126.85L240.732 1126.85 240.732 1130.76 228.642 1130.76C226.508 1130.76 225.442 1131.47 225.442 1132.54 225.442 1133.61 226.508 1134.32 228.642 1134.32L234.331 1134.32C239.309 1134.32 241.799 1136.1 241.799 1140.01 241.799 1143.92 238.954 1146.05 233.62 1146.05L220.819 1146.05 220.819 1142.14 233.976 1142.14 233.976 1141.43Z" fill="#2C0B07" transform="matrix(1 0 -0 1.0037 405.783 -702.141)"/><path d="M250.333 1133.96 263.134 1133.96 263.134 1137.52 250.333 1137.52 250.333 1141.43 264.556 1141.43 264.556 1145.34 245.354 1145.34 245.354 1126.5 264.556 1126.5 264.556 1130.41 250.333 1130.41Z" fill="#2C0B07" transform="matrix(1 0 -0 1.0037 405.783 -702.141)"/><path d="M268.467 1128.27C268.467 1126.85 269.534 1126.14 270.957 1126.14 272.023 1126.14 272.734 1126.5 273.09 1127.21L281.624 1138.59 290.158 1127.21C290.869 1126.5 291.581 1126.14 292.292 1126.14 293.714 1126.14 294.425 1127.21 294.425 1128.27L294.425 1145.34 289.803 1145.34 289.803 1133.96 283.402 1142.5C283.047 1143.21 282.335 1143.56 281.624 1143.56 280.913 1143.56 280.202 1143.21 279.846 1142.5L273.446 1133.96 273.446 1145.34 268.823 1145.34 268.467 1128.27 268.467 1128.27Z" fill="#2C0B07" transform="matrix(1 0 -0 1.0037 405.783 -702.141)"/><path d="M320.739 1140.01C320.739 1143.21 317.894 1145.7 313.627 1145.7L299.403 1145.7 299.403 1126.85 313.271 1126.85C317.538 1126.85 320.027 1128.99 320.027 1132.19 320.027 1133.96 319.316 1135.03 317.894 1136.1 319.672 1136.45 320.739 1137.88 320.739 1140.01M304.026 1133.96 312.916 1133.96C314.694 1133.96 315.405 1133.25 315.405 1132.19 315.405 1130.76 314.694 1130.41 312.916 1130.41L304.026 1130.41 304.026 1133.96ZM316.116 1139.65C316.116 1138.23 315.405 1137.52 313.271 1137.52L304.026 1137.52 304.026 1141.79 313.271 1141.79C315.049 1141.43 316.116 1141.08 316.116 1139.65" fill="#2C0B07" transform="matrix(1 0 -0 1.0037 405.783 -702.141)"/><path d="M342.785 1141.43 342.785 1145.34 324.294 1145.34 324.294 1126.5 328.917 1126.5 328.917 1141.43Z" fill="#2C0B07" transform="matrix(1 0 -0 1.0037 405.783 -702.141)"/><path d="M351.319 1133.96 364.12 1133.96 364.12 1137.52 351.319 1137.52 351.319 1141.43 365.898 1141.43 365.898 1145.34 346.696 1145.34 346.696 1126.5 365.898 1126.5 365.898 1130.41 351.319 1130.41Z" fill="#2C0B07" transform="matrix(1 0 -0 1.0037 405.783 -702.141)"/><path d="M369.81 1143.21C369.81 1141.79 370.876 1141.08 372.299 1141.08L373.365 1141.08C374.788 1141.08 375.854 1141.79 375.854 1143.21 375.854 1144.63 374.788 1145.34 373.365 1145.34L372.299 1145.34C370.876 1145.34 369.81 1144.28 369.81 1143.21" fill="#2C0B07" transform="matrix(1 0 -0 1.0037 405.783 -702.141)"/><path d="M60.094 1035.11C60.094 1043.29 53.3379 1048.98 41.9592 1048.98L6.40055 1048.98 6.40055 1002.4 40.8924 1002.4C51.56 1002.4 57.9605 1007.38 57.9605 1015.2 57.9605 1019.47 56.1826 1022.67 52.9823 1024.8 57.9605 1026.58 60.094 1030.13 60.094 1035.11M18.4905 1020.18 40.5368 1020.18C44.8038 1020.18 46.5818 1018.75 46.5818 1015.55 46.5818 1012.35 44.8038 1011.29 40.5368 1011.29L18.4905 1011.29 18.4905 1020.18ZM48.3597 1034.04C48.3597 1030.49 46.2262 1029.07 41.6036 1029.07L18.4905 1029.07 18.4905 1039.38 41.6036 1039.38C46.2262 1039.38 48.3597 1037.6 48.3597 1034.04" fill="#EF6110" transform="matrix(1 0 -0 1.0037 405.783 -702.141)"/><path d="M106.32 1038.31 80.3625 1038.31 74.6731 1048.62 61.5164 1048.62 87.8298 1004.18C88.8965 1002.4 91.03 1000.97 93.1636 1000.97 95.2971 1000.97 97.4306 1002.4 98.4973 1004.18L124.811 1048.62 112.01 1048.62 106.32 1038.31ZM100.986 1029.07 93.1636 1015.2 85.3407 1029.07 100.986 1029.07Z" fill="#EF6110" transform="matrix(1 0 -0 1.0037 405.783 -702.141)"/><path d="M172.459 1002.04 183.838 1002.04 183.838 1043.65C183.838 1047.2 181.349 1049.33 177.793 1049.33 176.015 1049.33 174.237 1048.62 173.17 1047.56L142.59 1017.69 142.59 1048.62 131.211 1048.62 131.211 1007.02C131.211 1003.46 133.7 1000.97 137.256 1000.97 139.034 1000.97 140.812 1001.69 141.879 1002.75L172.459 1032.27C172.459 1032.27 172.459 1002.04 172.459 1002.04Z" fill="#EF6110" transform="matrix(1 0 -0 1.0037 405.783 -702.141)"/><path d="M242.865 1048.62 240.021 1046.49C236.82 1047.91 233.264 1048.62 229.353 1048.62L216.908 1048.62C203.04 1048.62 192.728 1038.67 192.728 1024.8 192.728 1011.29 202.328 1001.69 216.908 1001.69L229.353 1001.69C243.576 1001.69 253.177 1011.29 253.177 1024.8 253.177 1031.2 251.044 1036.89 247.132 1041.16L256.022 1048.62 242.865 1048.62ZM231.131 1039.38 221.886 1031.91 235.754 1031.91 238.954 1034.76C240.732 1032.27 241.799 1029.07 241.799 1025.51 241.799 1017.33 236.82 1011.64 229.709 1011.64L217.263 1011.64C210.151 1011.64 205.173 1016.98 205.173 1025.51 205.173 1033.69 210.151 1039.73 217.263 1039.73L229.709 1039.73C230.064 1039.38 230.775 1039.38 231.131 1039.38" fill="#EF6110" transform="matrix(1 0 -0 1.0037 405.783 -702.141)"/><path d="M316.827 1002.04 316.827 1028.35C316.827 1042.22 307.226 1049.33 289.447 1049.33 271.668 1049.33 262.067 1041.87 262.067 1028.35L262.067 1002.04 273.446 1002.04 273.446 1027.29C273.446 1036.18 278.068 1039.73 289.447 1039.73 300.826 1039.73 305.448 1036.18 305.448 1027.29L305.448 1002.04 316.827 1002.04Z" fill="#EF6110" transform="matrix(1 0 -0 1.0037 405.783 -702.141)"/><path d="M339.585 1020.18 371.232 1020.18 371.232 1029.42 339.585 1029.42 339.585 1039.38 375.499 1039.38 375.499 1048.62 327.85 1048.62 327.85 1002.04 375.499 1002.04 375.499 1011.29 339.585 1011.29Z" fill="#EF6110" transform="matrix(1 0 -0 1.0037 405.783 -702.141)"/><path d="M-81.0736 1078.14C-81.0736 1088.8-89.2521 1094.85-103.12 1094.85L-122.322 1094.85-122.322 1108.01-134.056 1108.01-134.056 1061.42-103.12 1061.42C-88.8965 1061.42-81.0736 1067.47-81.0736 1078.14M-92.808 1078.14C-92.808 1073.16-96.0082 1070.67-103.12 1070.67L-121.966 1070.67-121.966 1085.6-103.12 1085.6C-96.3638 1085.6-92.808 1083.12-92.808 1078.14" fill="#EF6110" transform="matrix(1 0 -0 1.0037 405.783 -702.141)"/><path d="M-13.8679 1084.18C-13.8679 1098.05-23.8243 1108.01-37.6921 1108.01L-50.1376 1108.01C-64.0055 1108.01-74.3175 1098.05-74.3175 1084.18-74.3175 1070.67-64.7167 1061.07-50.1376 1061.07L-37.6921 1061.07C-23.4687 1061.42-13.8679 1070.67-13.8679 1084.18M-25.6022 1084.18C-25.6022 1076-30.5804 1070.31-37.6921 1070.31L-50.1376 1070.31C-57.2494 1070.31-62.2276 1075.65-62.2276 1084.18-62.2276 1092.36-57.2494 1098.41-50.1376 1098.41L-37.6921 1098.41C-30.5804 1098.76-25.6022 1092.36-25.6022 1084.18" fill="#EF6110" transform="matrix(1 0 -0 1.0037 405.783 -702.141)"/><path d="M48.3597 1078.14C48.3597 1088.8 40.1812 1094.85 26.3134 1094.85L7.11172 1094.85 7.11172 1108.01-4.62262 1108.01-4.62262 1061.42 26.3134 1061.42C40.1812 1061.42 48.3597 1067.47 48.3597 1078.14M36.2698 1078.14C36.2698 1073.16 33.0695 1070.67 25.9578 1070.67L7.11172 1070.67 7.11172 1085.6 25.9578 1085.6C33.0695 1085.6 36.2698 1083.12 36.2698 1078.14" fill="#EF6110" transform="matrix(1 0 -0 1.0037 405.783 -702.141)"/><path d="M111.654 1061.07 111.654 1087.38C111.654 1101.25 102.053 1108.36 84.2739 1108.36 66.4946 1108.36 56.8938 1100.89 56.8938 1087.38L56.8938 1061.07 68.2725 1061.07 68.2725 1086.32C68.2725 1095.21 72.8951 1098.76 84.2739 1098.76 95.6527 1098.76 100.275 1095.21 100.275 1086.32L100.275 1061.07 111.654 1061.07Z" fill="#EF6110" transform="matrix(1 0 -0 1.0037 405.783 -702.141)"/><path d="M168.548 1098.76 168.548 1108.01 122.677 1108.01 122.677 1061.42 134.412 1061.42 134.412 1098.76Z" fill="#EF6110" transform="matrix(1 0 -0 1.0037 405.783 -702.141)"/><path d="M217.619 1097.69 191.661 1097.69 185.972 1108.01 173.17 1108.01 199.484 1063.56C200.551 1061.78 202.684 1060.36 204.818 1060.36 206.951 1060.36 209.085 1061.78 210.151 1063.56L236.465 1108.01 223.664 1108.01 217.619 1097.69ZM212.285 1088.45 204.462 1074.58 196.639 1088.45 212.285 1088.45Z" fill="#EF6110" transform="matrix(1 0 -0 1.0037 405.783 -702.141)"/><path d="M242.154 1061.42 253.888 1061.42 253.888 1108.01 242.154 1108.01Z" fill="#EF6110" transform="matrix(1 0 -0 1.0037 405.783 -702.141)"/><path d="M307.938 1094.49 321.45 1108.01 306.515 1108.01 294.781 1095.92 277.002 1095.92 277.002 1108.01 265.267 1108.01 265.267 1061.42 297.27 1061.42C310.782 1061.42 318.961 1067.82 318.961 1078.49 318.961 1085.96 315.049 1092 307.938 1094.49M296.914 1086.67C304.026 1086.67 307.226 1084.18 307.226 1078.49 307.226 1073.16 304.026 1070.31 296.914 1070.31L277.357 1070.31 277.357 1086.67 296.914 1086.67 296.914 1086.67Z" fill="#EF6110" transform="matrix(1 0 -0 1.0037 405.783 -702.141)"/><path d="M339.585 1079.56 371.232 1079.56 371.232 1088.8 339.585 1088.8 339.585 1098.76 375.499 1098.76 375.499 1108.01 327.85 1108.01 327.85 1061.42 375.499 1061.42 375.499 1070.67 339.585 1070.67Z" fill="#EF6110" transform="matrix(1 0 -0 1.0037 405.783 -702.141)"/><path d="M522.712 1159.57C465.818 1159.57 419.236 1113.34 419.236 1056.09 419.236 999.197 465.462 952.615 522.712 952.615 579.605 952.615 626.187 998.841 626.187 1056.09 626.187 1113.34 579.961 1159.57 522.712 1159.57M522.712 960.082C469.729 960.082 426.703 1003.11 426.703 1056.09 426.703 1109.07 469.729 1152.1 522.712 1152.1 575.694 1152.1 618.72 1109.07 618.72 1056.09 618.72 1003.11 575.694 960.082 522.712 960.082" fill="#EF6110" transform="matrix(1 0 -0 1.0037 405.783 -702.141)"/><path d="M518.089 1104.45C517.733 1104.09 516.667 1103.38 516.311 1101.96 515.955 1101.25 515.955 1099.47 515.244 1098.76 512.044 1096.27 508.844 1094.14 504.577 1091.65 503.154 1092.36 501.376 1093.43 499.954 1094.14 502.443 1095.56 505.288 1097.69 508.132 1100.54 508.488 1100.89 508.844 1100.89 509.555 1100.89 510.266 1100.54 511.333 1100.54 512.044 1100.89 513.111 1101.61 513.111 1103.03 512.044 1104.09L512.044 1104.45C512.044 1105.52 512.4 1106.23 512.4 1106.94 512.4 1106.94 512.4 1107.3 512.755 1107.3L518.8 1110.5C519.156 1110.5 519.511 1110.5 519.156 1110.14 518.8 1106.23 518.445 1105.16 518.089 1104.45 518.445 1104.45 518.445 1104.45 518.089 1104.45M549.736 1077.78C549.025 1078.14 547.958 1078.49 547.603 1079.56 546.536 1082.05 545.825 1084.18 545.113 1086.67 543.691 1088.45 543.336 1089.87 543.336 1092.36 543.336 1094.14 541.202 1097.69 536.579 1110.14 536.579 1110.5 536.224 1110.85 536.579 1111.21 536.579 1111.56 536.935 1112.27 537.291 1112.98L537.646 1113.34C538.002 1113.34 538.713 1113.34 538.713 1113.7 539.424 1113.7 541.202 1114.41 541.558 1116.18 541.558 1116.54 541.558 1117.25 541.558 1117.25L541.558 1117.25C541.558 1117.61 541.913 1118.67 542.269 1119.74L542.624 1120.1 549.025 1120.1C549.38 1120.1 549.736 1119.74 549.38 1119.38 547.958 1117.25 547.603 1116.9 546.891 1115.47L546.891 1115.47C544.402 1114.41 543.691 1113.34 542.98 1112.63 542.269 1111.56 542.269 1110.5 542.269 1109.78 542.624 1106.23 547.958 1096.63 549.025 1095.56 550.803 1094.14 551.158 1093.07 551.514 1092 551.87 1090.94 551.87 1090.23 551.87 1089.87 552.225 1088.45 555.781 1083.83 557.559 1081.34 554.359 1078.85 552.225 1078.85 549.736 1077.78M579.605 1010.58C579.605 1010.58 579.25 1010.58 579.605 1010.58 578.894 1009.86 578.894 1009.86 578.894 1009.51 578.539 1008.44 578.539 1008.09 578.183 1008.09 577.827 1008.09 577.472 1007.73 577.116 1007.73 576.049 1007.73 574.983 1007.73 573.916 1007.38 568.582 1005.24 566.093 1003.11 566.093 1003.11 566.804 1002.4 568.227 1000.62 566.804 998.13 566.804 998.841 566.449 999.197 566.093 999.197 566.449 997.063 565.026 995.641 563.604 995.285 564.671 995.997 564.315 997.419 564.315 997.775 563.96 997.063 563.248 995.997 562.182 995.997 562.893 997.775 561.826 999.552 559.692 999.197 560.404 997.063 560.048 994.574 559.337 992.085L559.337 992.085C558.27 994.574 556.848 995.285 555.425 999.197 554.359 998.486 550.447 996.352 547.247 997.775 548.314 998.13 550.447 998.841 550.803 999.908 547.603 999.197 543.691 999.552 541.202 1001.69 542.98 1001.33 545.469 1002.04 546.18 1002.75 544.758 1003.82 541.913 1004.18 538.713 1004.18 539.424 1004.89 542.269 1006.31 544.047 1006.66 539.424 1006.66 538.357 1008.8 535.513 1010.22 538.713 1009.86 539.78 1011.29 541.913 1011.29 538.357 1012 536.935 1013.42 533.023 1013.06 533.735 1014.49 536.935 1016.26 538.357 1016.62 536.224 1016.98 533.379 1018.75 530.89 1018.04 531.957 1020.18 535.868 1021.24 538.002 1021.24 537.646 1021.95 533.735 1022.67 531.957 1022.67 532.668 1023.73 536.224 1023.73 536.935 1024.09 536.224 1024.8 531.601 1025.51 530.179 1025.51 531.246 1027.64 535.868 1028.71 538.002 1028.35 537.291 1030.49 531.601 1030.13 529.112 1029.07 530.179 1031.56 534.446 1034.4 538.357 1034.04 536.579 1035.11 531.957 1035.47 529.823 1035.11 530.534 1036.53 533.735 1038.67 536.224 1039.38 538.357 1040.09 537.646 1041.51 535.513 1042.22 528.045 1044.36 516.667 1044.36 507.777 1042.58 505.288 1042.22 501.732 1042.22 499.243 1042.58 497.465 1042.93 496.043 1043.29 494.62 1044L494.62 1044C493.909 1044.36 493.909 1044 493.909 1042.93L493.909 1042.93C494.265 1041.16 494.265 1039.38 493.909 1037.6 493.198 1033.69 489.642 1031.2 486.086 1029.42 482.886 1028 478.974 1027.29 475.419 1027.64 473.996 1027.64 472.574 1028 471.152 1028 470.44 1028 467.951 1028.71 466.885 1029.07 467.596 1029.42 467.951 1029.78 469.729 1030.13 464.751 1030.49 459.773 1032.27 455.15 1029.42 455.861 1032.27 459.062 1032.98 461.195 1032.98 448.75 1035.11 442.705 1028 441.993 1026.58 443.771 1034.04 450.528 1036.53 452.661 1036.89 451.239 1036.89 447.327 1037.24 441.993 1034.4 444.838 1041.16 457.639 1040.09 458.35 1040.09 457.639 1040.44 454.439 1041.51 449.461 1041.16 455.506 1045.78 465.107 1040.09 477.552 1039.73 475.063 1040.09 471.152 1041.51 468.662 1044.36 476.841 1040.8 483.953 1041.51 484.664 1041.51 491.42 1041.87 491.064 1044.71 488.22 1048.98 487.153 1050.76 486.442 1052.89 486.086 1055.02 485.375 1060.36 487.509 1065.69 490.709 1069.6 491.776 1071.03 493.198 1072.45 494.62 1073.87 496.754 1075.65 498.176 1077.07 499.243 1077.78 501.732 1079.91 502.088 1080.63 501.732 1081.34 500.665 1083.12 498.887 1084.54 497.109 1085.96L496.398 1085.6C495.687 1085.25 495.687 1084.89 495.687 1084.89 496.754 1084.54 498.532 1084.18 499.954 1082.05 500.31 1081.69 500.31 1081.34 500.31 1080.63 500.31 1080.27 499.598 1079.56 498.887 1078.85L498.887 1078.85 498.887 1078.85C498.887 1078.85 498.887 1078.85 498.532 1078.49 498.176 1078.14 497.82 1077.78 497.465 1077.43 496.398 1076.71 494.62 1075.65 493.198 1074.23 491.064 1081.34 487.509 1084.54 486.442 1084.89 486.442 1084.89 486.086 1085.25 486.442 1085.25 486.442 1085.6 486.797 1086.67 486.797 1087.74 486.797 1088.09 487.153 1088.45 487.509 1088.45 488.575 1088.45 489.286 1088.8 490.709 1088.8 491.064 1088.8 491.064 1088.8 491.42 1088.8L491.42 1088.8 491.42 1088.8C491.064 1089.52 491.064 1090.23 491.064 1091.29 491.064 1091.65 491.064 1091.65 491.42 1091.65 492.487 1092.72 494.62 1094.49 495.687 1095.56 498.176 1098.41 499.954 1099.83 503.51 1110.14 503.51 1110.5 504.221 1110.5 504.577 1110.85 508.132 1111.56 508.132 1114.41 507.777 1115.12 507.777 1115.12 507.777 1115.12 507.777 1115.47 507.777 1116.54 508.132 1117.25 508.132 1117.61 508.132 1117.61 508.132 1117.96 508.488 1117.96L515.6 1117.96C515.955 1117.96 515.955 1117.61 515.955 1117.61 514.533 1115.12 513.822 1114.05 513.111 1113.34L513.111 1113.34C512.4 1112.98 510.266 1112.63 509.555 1110.85 509.199 1110.14 509.199 1109.78 509.555 1109.07 509.555 1108.72 509.199 1107.65 509.199 1107.3 504.577 1101.96 501.376 1094.49 500.665 1092.72 500.665 1092.36 500.665 1092.36 500.665 1092.36 500.665 1092.36 500.665 1092.36 501.021 1092.36L501.021 1092.36 501.021 1092.36C502.443 1091.65 503.51 1090.94 505.288 1089.52 505.999 1089.16 506.355 1088.8 506.71 1088.45 511.688 1084.89 514.177 1081.69 515.955 1078.14 517.022 1076 517.733 1072.09 517.378 1069.96 517.022 1067.82 515.955 1066.05 515.244 1064.98 515.244 1064.98 515.244 1064.62 515.6 1064.98 517.378 1066.05 518.8 1070.67 519.156 1071.38 519.156 1071.38 524.845 1075.65 546.891 1075.65 547.603 1075.65 548.314 1075.65 549.025 1075.65 549.38 1075.65 550.092 1075.65 550.447 1075.29 550.092 1074.94 549.38 1074.58 549.025 1074.23 547.603 1072.8 546.536 1071.03 545.825 1068.89 545.469 1067.82 545.113 1065.69 545.113 1064.62 545.113 1063.91 545.469 1063.91 545.469 1064.62 545.825 1065.69 545.825 1067.11 546.536 1068.18 547.247 1069.96 547.958 1071.38 549.38 1072.45 550.447 1073.51 551.87 1074.94 553.648 1075.65 554.003 1076 554.359 1076 555.07 1076.36 562.182 1079.56 567.16 1081.34 572.138 1083.47 572.138 1083.47 572.494 1083.83 572.494 1084.18 572.494 1084.18 572.494 1084.89 572.494 1085.96 572.494 1086.32 572.138 1086.67 572.138 1086.67 568.227 1091.29 566.093 1093.43 561.826 1096.98 561.47 1097.34 561.115 1097.69 561.115 1098.41 561.115 1099.47 561.47 1099.83 561.47 1100.54 561.47 1101.25 561.115 1101.25 560.759 1101.25 560.048 1100.89 558.981 1100.54 557.915 1100.18 557.559 1100.18 557.559 1100.18 557.203 1100.54L554.003 1106.58C554.003 1106.94 554.003 1107.3 554.359 1107.3 555.781 1106.94 557.559 1106.94 558.626 1106.58 560.404 1106.23 560.404 1104.45 563.604 1103.74 563.96 1103.74 564.671 1103.74 565.382 1103.03 565.737 1102.32 566.804 1100.54 567.515 1099.12 568.582 1097.69 568.938 1096.63 569.293 1096.27 571.427 1093.43 571.782 1093.07 577.472 1087.03L577.827 1086.32C577.827 1085.25 578.183 1083.83 578.183 1082.4 578.183 1081.69 577.827 1081.34 577.827 1080.98 577.827 1080.98 576.761 1079.91 576.761 1079.56 572.494 1076.71 568.582 1071.74 567.16 1070.31L567.515 1069.96 567.515 1069.96C567.515 1069.96 567.515 1069.96 567.871 1069.6 568.938 1068.54 570.005 1067.11 570.716 1065.69 574.983 1057.51 572.494 1048.27 568.938 1040.44 560.404 1023.02 561.47 1015.91 561.47 1015.91 564.315 1016.62 566.449 1014.84 568.582 1014.49L573.916 1014.49C574.271 1014.84 574.983 1015.55 575.338 1015.91 575.694 1015.91 576.049 1015.91 576.405 1015.91 576.761 1015.91 577.472 1015.55 578.183 1015.2L579.25 1014.84C579.25 1014.84 579.605 1014.84 579.605 1014.49 579.961 1014.13 580.316 1013.42 580.316 1013.06L580.316 1012.71C579.605 1012.71 578.183 1012.35 577.827 1012.35 577.472 1012.35 577.472 1011.29 577.827 1011.29 578.539 1011.29 580.316 1011.64 580.672 1011.64L581.028 1011.64C581.028 1011.29 581.383 1010.58 581.739 1010.22 579.961 1011.29 579.961 1010.93 579.605 1010.58M563.248 1005.24C562.182 1005.24 562.182 1005.6 562.182 1005.6 562.182 1005.95 562.537 1006.31 563.248 1006.66 562.182 1006.66 561.826 1006.31 560.759 1005.24 561.47 1004.53 562.182 1004.18 563.248 1004.18 564.671 1004.18 565.026 1005.95 565.026 1005.95 565.026 1005.95 563.604 1005.6 563.248 1005.24" fill="#2C0B07" transform="matrix(1 0 -0 1.0037 405.783 -702.141)"/></g></g></g></svg>